<svg width="80" height="40" viewBox="0 0 80 40" fill="none" xmlns="http://www.w3.org/2000/svg">
<path fill-rule="evenodd" clip-rule="evenodd" d="M16.3414 14.5H23.6586C23.5894 14.1558 23.4701 13.7423 23.2667 13.3354C23.0299 12.8619 22.6865 12.4112 22.1855 12.0772C21.6892 11.7463 20.9938 11.5 20 11.5C19.0062 11.5 18.3108 11.7463 17.8145 12.0772C17.3135 12.4112 16.9701 12.8619 16.7333 13.3354C16.5299 13.7423 16.4106 14.1558 16.3414 14.5ZM25.1818 14.5C25.1779 14.475 25.1738 14.4495 25.1695 14.4236C25.091 13.9526 24.9326 13.3131 24.6083 12.6646C24.2826 12.0131 23.7822 11.3388 23.0176 10.8291C22.2483 10.3162 21.2562 10 20 10C18.7438 10 17.7517 10.3162 16.9824 10.8291C16.2178 11.3388 15.7174 12.0131 15.3917 12.6646C15.0674 13.3131 14.909 13.9526 14.8305 14.4236C14.8262 14.4495 14.8221 14.475 14.8182 14.5H11.75C11.3358 14.5 11 14.8358 11 15.25V30.25C11 30.6642 11.3358 31 11.75 31H28.25C28.6642 31 29 30.6642 29 30.25V15.25C29 14.8358 28.6642 14.5 28.25 14.5H25.1818ZM12.5 16V29.5H27.5V16H12.5Z" fill="black"/>
<path fill-rule="evenodd" clip-rule="evenodd" d="M56.3414 14.5H63.6586C63.5894 14.1558 63.4701 13.7423 63.2667 13.3354C63.0299 12.8619 62.6865 12.4112 62.1855 12.0772C61.6892 11.7463 60.9938 11.5 60 11.5C59.0062 11.5 58.3108 11.7463 57.8145 12.0772C57.3135 12.4112 56.9701 12.8619 56.7333 13.3354C56.5299 13.7423 56.4106 14.1558 56.3414 14.5ZM65.1818 14.5C65.1779 14.475 65.1738 14.4495 65.1695 14.4236C65.091 13.9526 64.9326 13.3131 64.6083 12.6646C64.2826 12.0131 63.7822 11.3388 63.0176 10.8291C62.2483 10.3162 61.2562 10 60 10C58.7438 10 57.7517 10.3162 56.9824 10.8291C56.2178 11.3388 55.7174 12.0131 55.3917 12.6646C55.0674 13.3131 54.909 13.9526 54.8305 14.4236C54.8262 14.4495 54.8221 14.475 54.8182 14.5H51.75C51.3358 14.5 51 14.8358 51 15.25V30.25C51 30.6642 51.3358 31 51.75 31H68.25C68.6642 31 69 30.6642 69 30.25V15.25C69 14.8358 68.6642 14.5 68.25 14.5H65.1818Z" fill="black"/>
</svg>
