<svg width="21" height="21" viewBox="0 0 21 21" fill="none" xmlns="http://www.w3.org/2000/svg">
<path fill-rule="evenodd" clip-rule="evenodd" d="M7.3442 6.13314C7.25896 6.04789 7.14334 6 7.02279 6C6.90224 6 6.78662 6.04789 6.70138 6.13314L6.1332 6.70132C5.95569 6.87883 5.95569 7.16663 6.1332 7.34414L9.789 11L6.13313 14.6559C5.95562 14.8334 5.95562 15.1212 6.13313 15.2987L6.70131 15.8669C6.78655 15.9522 6.90217 16 7.02272 16C7.14328 16 7.25889 15.9522 7.34414 15.8669L11 12.211L14.6559 15.8669C14.7411 15.9522 14.8567 16 14.9773 16C15.0978 16 15.2134 15.9522 15.2987 15.8669L15.8669 15.2987C16.0444 15.1212 16.0444 14.8334 15.8669 14.6559L12.211 11L15.8668 7.34414C16.0443 7.16663 16.0443 6.87883 15.8668 6.70132L15.2986 6.13314C15.2134 6.04789 15.0978 6 14.9772 6C14.8567 6 14.741 6.04789 14.6558 6.13314L11 9.78898L7.3442 6.13314Z" fill="white"/>
</svg>
